solid ascii
  facet normal 0.000000e+000 0.000000e+000 1.000000e+000
    outer loop
      vertex   -2.450000e+001 3.670479e+001 5.100000e+001
      vertex   -2.950000e+001 3.670479e+001 5.100000e+001
      vertex   -2.450000e+001 2.670479e+001 5.100000e+001
    endloop
  endfacet
  facet normal 0.000000e+000 0.000000e+000 8.944272e-001
    outer loop
      vertex   -2.450000e+001 2.670479e+001 5.100000e+001
      vertex   -2.950000e+001 3.670479e+001 5.100000e+001
      vertex   -2.950000e+001 2.670479e+001 5.100000e+001
    endloop
  endfacet
  facet normal 0.000000e+000 0.000000e+000 -1.000000e+000
    outer loop
      vertex   -2.450000e+001 2.670479e+001 1.100000e+001
      vertex   -2.950000e+001 2.670479e+001 1.100000e+001
      vertex   -2.450000e+001 3.670479e+001 1.100000e+001
    endloop
  endfacet
  facet normal -0.000000e+000 0.000000e+000 -8.944272e-001
    outer loop
      vertex   -2.450000e+001 3.670479e+001 1.100000e+001
      vertex   -2.950000e+001 2.670479e+001 1.100000e+001
      vertex   -2.950000e+001 3.670479e+001 1.100000e+001
    endloop
  endfacet
  facet normal 0.000000e+000 -1.000000e+000 0.000000e+000
    outer loop
      vertex   -2.950000e+001 2.670479e+001 5.100000e+001
      vertex   -2.950000e+001 2.670479e+001 1.100000e+001
      vertex   -2.450000e+001 2.670479e+001 5.100000e+001
    endloop
  endfacet
  facet normal 0.000000e+000 -1.240347e-001 -0.000000e+000
    outer loop
      vertex   -2.450000e+001 2.670479e+001 5.100000e+001
      vertex   -2.950000e+001 2.670479e+001 1.100000e+001
      vertex   -2.450000e+001 2.670479e+001 1.100000e+001
    endloop
  endfacet
  facet normal -1.000000e+000 -0.000000e+000 -0.000000e+000
    outer loop
      vertex   -2.950000e+001 3.670479e+001 5.100000e+001
      vertex   -2.950000e+001 3.670479e+001 1.100000e+001
      vertex   -2.950000e+001 2.670479e+001 5.100000e+001
    endloop
  endfacet
  facet normal -2.425356e-001 0.000000e+000 0.000000e+000
    outer loop
      vertex   -2.950000e+001 2.670479e+001 5.100000e+001
      vertex   -2.950000e+001 3.670479e+001 1.100000e+001
      vertex   -2.950000e+001 2.670479e+001 1.100000e+001
    endloop
  endfacet
  facet normal 0.000000e+000 1.000000e+000 0.000000e+000
    outer loop
      vertex   -2.450000e+001 3.670479e+001 5.100000e+001
      vertex   -2.450000e+001 3.670479e+001 1.100000e+001
      vertex   -2.950000e+001 3.670479e+001 5.100000e+001
    endloop
  endfacet
  facet normal 0.000000e+000 1.240347e-001 0.000000e+000
    outer loop
      vertex   -2.950000e+001 3.670479e+001 5.100000e+001
      vertex   -2.450000e+001 3.670479e+001 1.100000e+001
      vertex   -2.950000e+001 3.670479e+001 1.100000e+001
    endloop
  endfacet
  facet normal 1.000000e+000 -0.000000e+000 0.000000e+000
    outer loop
      vertex   -2.450000e+001 2.670479e+001 5.100000e+001
      vertex   -2.450000e+001 2.670479e+001 1.100000e+001
      vertex   -2.450000e+001 3.670479e+001 5.100000e+001
    endloop
  endfacet
  facet normal 2.425356e-001 0.000000e+000 0.000000e+000
    outer loop
      vertex   -2.450000e+001 3.670479e+001 5.100000e+001
      vertex   -2.450000e+001 2.670479e+001 1.100000e+001
      vertex   -2.450000e+001 3.670479e+001 1.100000e+001
    endloop
  endfacet
endsolid
